# xmcd
#
# Track frame offsets: 
#        150
#        20371
#        47799
#        72257
#
# Disc length: 1266 seconds
#
# Revision: 0
# Processed by: cddbd v1.5.2PL0 Copyright (c) Steve Scherf et al.
# Submitted via: ExactAudioCopy v0.99pb4
#
DISCID=2e04f004
DTITLE=Men In Blues - Live At The Q-Bus
DYEAR=2003
DGENRE=Blues
TTITLE0=Baby Have A Good Time
TTITLE1=Work
TTITLE2=Serve Somebody
TTITLE3=Willin'
EXTD=
EXTT0=
EXTT1=
EXTT2=
EXTT3=
PLAYORDER=
